<?xml version="1.0" standalone="no"?>
<!DOCTYPE svg PUBLIC "-//W3C//DTD SVG 20010904//EN"
 "http://www.w3.org/TR/2001/REC-SVG-20010904/DTD/svg10.dtd">
<svg version="1.0" xmlns="http://www.w3.org/2000/svg"
 width="521.000000pt" height="521.000000pt" viewBox="0 0 521.000000 521.000000"
 preserveAspectRatio="xMidYMid meet">
<metadata>
Created by potrace 1.11, written by Peter Selinger 2001-2013
</metadata>
<g transform="translate(0.000000,521.000000) scale(0.100000,-0.100000)"
fill="#000000" stroke="none">
<path d="M1635 5107 c-43 -25 -47 -31 -256 -497 -51 -113 -109 -242 -131 -288
-21 -46 -38 -85 -38 -87 0 -2 -15 -36 -34 -77 -19 -40 -62 -136 -96 -213 -34
-77 -72 -162 -85 -190 -13 -27 -51 -113 -85 -190 -34 -77 -65 -143 -68 -147
-4 -3 -162 -8 -351 -11 l-345 -4 -28 -34 -28 -33 0 -247 0 -246 34 -37 35 -36
175 0 c158 0 175 -2 180 -17 3 -10 14 -83 26 -163 11 -80 23 -156 25 -170 2
-14 9 -61 15 -105 6 -44 13 -91 15 -105 10 -58 44 -299 50 -345 3 -27 10 -75
15 -105 5 -30 12 -75 15 -100 3 -25 8 -56 10 -70 2 -14 29 -198 60 -410 87
-599 108 -709 146 -785 44 -89 117 -167 196 -211 115 -65 152 -72 398 -74 417
-4 2380 0 2441 4 148 12 296 105 381 239 27 43 59 124 67 173 7 37 45 279 51
319 3 17 14 89 24 160 11 72 23 150 26 175 5 36 37 255 69 475 3 17 21 143 41
280 53 374 115 787 120 813 5 22 7 22 180 22 l175 0 35 36 35 36 0 248 0 247
-28 33 -28 32 -290 5 c-159 3 -316 6 -348 6 l-59 2 -103 230 c-56 126 -112
250 -123 275 -76 170 -171 382 -189 420 -11 25 -50 111 -86 192 -36 81 -84
186 -106 234 -22 47 -40 88 -40 90 0 2 -24 55 -54 118 -35 72 -64 121 -80 131
-68 45 -183 18 -211 -49 -21 -49 -19 -86 9 -158 24 -64 164 -383 364 -828 306
-680 291 -645 273 -652 -21 -8 -2809 -8 -2837 1 -25 7 -66 -91 339 812 265
591 306 687 314 745 8 60 -19 111 -71 135 -54 25 -93 23 -141 -4z m96 -97 c26
-15 24 -45 -11 -117 -23 -51 -34 -63 -53 -63 -52 0 -59 36 -21 113 41 82 48
87 85 67z m1833 -49 c42 -83 42 -132 -1 -125 -7 1 -17 2 -23 3 -13 1 -70 115
-70 140 0 24 26 40 52 33 10 -2 29 -25 42 -51z m-1909 -2660 c23 -10 52 -35
68 -58 l27 -39 -2 -685 c-3 -627 -4 -687 -20 -716 -52 -94 -167 -115 -249 -46
-60 51 -59 28 -58 775 l0 683 26 34 c55 70 128 89 208 52z m1043 -8 c14 -10
35 -32 46 -47 21 -27 21 -39 24 -722 l4 -695 -27 -35 c-76 -99 -194 -100 -269
-1 l-26 35 0 681 c1 436 5 692 11 709 14 36 47 71 84 88 40 19 119 12 153 -13z
m1018 8 c18 -11 43 -35 58 -54 l26 -34 0 -692 0 -693 -22 -31 c-32 -46 -44
-56 -80 -71 -73 -31 -171 5 -205 74 -17 32 -18 86 -18 715 0 757 -3 725 68
776 49 36 124 40 173 10z"/>
</g>
</svg>
